HIERARCHY
ROOT Hips
{
	OFFSET 0.00000 0.00000 0.00000
	CHANNELS 6 Xposition Yposition Zposition Zrotation Yrotation Xrotation 
	JOINT LHipJoint
	{
		OFFSET 0 0 0
		CHANNELS 3 Zrotation Yrotation Xrotation
		JOINT LeftHip
		{
			OFFSET 1.86795 -1.59681 0.65681
			CHANNELS 3 Zrotation Yrotation Xrotation
			JOINT LeftKnee
			{
				OFFSET 2.30491 -6.33268 0.00000
				CHANNELS 3 Zrotation Yrotation Xrotation
				JOINT LeftAnkle
				{
					OFFSET 2.46780 -6.78022 0.00000
					CHANNELS 3 Zrotation Yrotation Xrotation
					JOINT LeftToe
					{
						OFFSET 0.07897 -0.21698 1.59652
						CHANNELS 3 Zrotation Yrotation Xrotation
						End Site
						{
							OFFSET 0.00000 -0.00000 0.82310
						}
					}
				}
			}
		}
	}
	JOINT RHipJoint
	{
		OFFSET 0 0 0
		CHANNELS 3 Zrotation Yrotation Xrotation
		JOINT RightHip
		{
			OFFSET -1.93650 -1.59681 0.65681
			CHANNELS 3 Zrotation Yrotation Xrotation
			JOINT RightKnee
			{
				OFFSET -2.29410 -6.30299 0.00000
				CHANNELS 3 Zrotation Yrotation Xrotation
				JOINT RightAnkle
				{
					OFFSET -2.48738 -6.83403 0.00000
					CHANNELS 3 Zrotation Yrotation Xrotation
					JOINT RightToe
					{
						OFFSET -0.08699 -0.23899 1.89395
						CHANNELS 3 Zrotation Yrotation Xrotation
						End Site
						{
							OFFSET -0.00000 -0.00000 0.96904
						}
					}
				}
			}
		}
	}
	JOINT lowerback
	{
		OFFSET 0 0 0
		CHANNELS 3 Zrotation Yrotation Xrotation
		JOINT Chest
		{
			OFFSET 0.03629 1.99740 -0.07548
			CHANNELS 3 Zrotation Yrotation Xrotation
			JOINT Chest2
			{
				OFFSET 0.03970 1.94298 0.17218
				CHANNELS 3 Zrotation Yrotation Xrotation
				JOINT lowerneck
				{
					OFFSET 0 0 0
					CHANNELS 3 Zrotation Yrotation Xrotation
					JOINT Neck
					{
						OFFSET -0.05054 1.79469 0.04241
						CHANNELS 3 Zrotation Yrotation Xrotation
						JOINT Head
						{
							OFFSET 0.05195 1.78475 -0.22133
							CHANNELS 3 Zrotation Yrotation Xrotation
							End Site
							{
								OFFSET 0.02420 1.80711 -0.07950
							}
						}
					}
				}
				JOINT LeftCollar
				{
					OFFSET 0 0 0
					CHANNELS 3 Zrotation Yrotation Xrotation
					JOINT LeftShoulder
					{
						OFFSET 2.92134 1.19850 0.36056
CHANNELS 3 Zrotation Xrotation Yrotation
						JOINT LeftElbow
						{
OFFSET 0 -4.841370 0.000000
CHANNELS 3 Zrotation Xrotation Yrotation
							JOINT LeftWrist
							{
OFFSET 0 -3.245200 -0.000000
CHANNELS 3 Zrotation Xrotation Yrotation
								JOINT lhand
								{
									OFFSET 0 0 0
CHANNELS 3 Zrotation Xrotation Yrotation
									JOINT LFingers
									{
OFFSET 0 -0.521220 0.000000
CHANNELS 3 Zrotation Xrotation Yrotation
										End Site
										{
OFFSET 0 -0.420220 0.000000
										}
									}
								}
								JOINT LThumb
								{
OFFSET 0 0.000000 0.000000
CHANNELS 3 Zrotation Xrotation Yrotation
									End Site
									{
OFFSET 0 -0.426640 0.426640
									}
								}
							}
						}
					}
				}
				JOINT RightCollar
				{
					OFFSET 0 0 0
					CHANNELS 3 Zrotation Yrotation Xrotation
					JOINT RightShoulder
					{
						OFFSET -2.84327 1.20795 0.50191
CHANNELS 3 Zrotation Xrotation Yrotation
						JOINT RightElbow
						{
OFFSET 0 -4.722840 0.000000
CHANNELS 3 Zrotation Xrotation Yrotation
							JOINT RightWrist
							{
OFFSET 0 -3.234590 0.000000
CHANNELS 3 Zrotation Xrotation Yrotation
								JOINT rhand
								{
									OFFSET 0 0 0
CHANNELS 3 Zrotation Xrotation Yrotation
									JOINT RFingers
									{
OFFSET 0 -0.307420 0.000000
CHANNELS 3 Zrotation Xrotation Yrotation
										End Site
										{
OFFSET 0 -0.247850 0.000000
										}
									}
								}
								JOINT RThumb
								{
OFFSET 0 0.000000 0.000000
CHANNELS 3 Zrotation Xrotation Yrotation
									End Site
									{
OFFSET 0 -0.251630 0.251630
									}
								}
							}
						}
					}
				}
			}
		}
	}
}
MOTION
Frames: 10
Frame Time: 0.008333333333333333
10.410985 14.980271 -21.217865 -192.986963 -127.743244 -158.343043 0.000000 0.000000 0.000000 -30.175364 3.604342 -51.436436 8.430252 16.426747 54.097988 0.510225 5.974564 -16.990117 0.182967 2.619593 7.227370 0.000000 0.000000 0.000000 27.798524 -12.584336 -34.032244 -14.308190 -19.201585 73.140850 0.181736 -8.331559 -6.484334 -4.391919 -11.159580 34.222641 6.404047 2.742755 5.259468 1.227254 4.388294 -6.831857 -2.844867 1.683520 -9.873168 -2.442655 0.796195 -4.202777 2.524753 0.402566 26.597075 1.292939 0.036377 8.969712 0.000000 0.000000 0.000000 102.311550 -10.777725 27.703653 28.031079 -39.144626 10.143388 -49.921279 -10.343557 -32.250067 0.000000 0.000000 0.000000 -7.125000 0.000000 0.000000 -72.656698 48.847416 13.642608 0.000000 0.000000 0.000000 -114.070764 -27.477781 -21.957699 -29.794940 -40.716913 -11.275592 16.770226 -36.474915 -23.935808 0.000000 0.000000 0.000000 7.125000 0.000000 0.000000 27.333085 7.038562 27.169848
10.014690 14.997540 -21.162498 -191.163187 -129.841427 -160.224008 0.000000 0.000000 0.000000 -30.534796 3.824562 -49.170832 8.285313 16.325163 53.584027 0.845733 4.044698 -19.295148 1.348452 7.310943 20.658456 0.000000 0.000000 0.000000 25.214349 -13.571272 -37.940772 -16.324616 -19.670514 79.196040 0.037899 -5.929171 2.948746 -2.175284 9.220720 -26.489171 5.540264 2.220756 5.991280 0.981117 3.649367 -7.115962 -2.581622 1.343592 -10.726621 -2.697562 0.980423 -3.237899 2.699970 0.653585 25.872452 1.404250 0.150101 8.529013 0.000000 0.000000 0.000000 102.008410 -12.964136 28.890375 29.044764 -40.060220 10.789546 -50.264606 -11.050122 -31.534322 0.000000 0.000000 0.000000 -7.125000 0.000000 0.000000 -71.801191 48.371065 11.822921 0.000000 0.000000 0.000000 -117.300447 -25.809893 -24.906432 -29.851776 -40.766014 -11.312728 12.682983 -36.335788 -24.025750 0.000000 0.000000 0.000000 7.125000 0.000000 0.000000 25.148004 7.113089 24.391447
9.649062 14.990406 -21.120730 -189.162942 -132.307384 -162.629861 0.000000 0.000000 0.000000 -30.705830 3.619504 -46.732648 8.324064 16.352510 53.721817 0.919124 4.310660 -20.161587 0.718786 5.415313 15.097522 0.000000 0.000000 0.000000 22.092895 -14.033007 -40.827535 -17.793269 -19.882090 83.535652 0.093834 -6.509123 1.480419 -1.755959 8.254358 -23.536547 4.462638 1.546856 7.175446 1.004584 2.702503 -7.128032 -1.864646 0.950830 -11.577057 -3.104427 1.263992 -3.206197 2.628019 1.118893 26.100890 1.489718 0.323948 8.586252 0.000000 0.000000 0.000000 101.454257 -14.524982 29.338021 30.108440 -40.985136 11.481044 -50.042824 -10.659533 -27.868045 0.000000 0.000000 0.000000 -7.125000 0.000000 0.000000 -66.745179 45.972120 3.064787 0.000000 0.000000 0.000000 -120.396368 -24.619139 -28.786847 -29.451674 -40.418602 -11.052433 8.971682 -35.659020 -25.181355 0.000000 0.000000 0.000000 7.125000 0.000000 0.000000 23.002013 6.075092 22.370778
9.286430 14.991640 -21.083888 -188.863553 -135.107758 -163.681664 0.000000 0.000000 0.000000 -29.124840 2.712748 -44.501704 8.507027 16.479824 54.369151 1.035712 3.820615 -20.960368 0.389844 4.009121 11.102231 0.000000 0.000000 0.000000 20.543454 -13.826936 -43.566017 -18.502165 -19.946091 85.616804 0.314471 -10.141409 -1.303148 -0.974299 6.280873 -17.602413 4.666481 0.990330 8.189323 1.116725 2.054285 -7.025639 -1.775922 0.616894 -12.123282 -2.701237 1.276511 -3.410817 1.985945 1.254787 26.377225 1.219175 0.366444 8.726368 0.000000 0.000000 0.000000 101.417719 -16.194658 29.642259 31.561422 -42.194723 12.445314 -49.795313 -11.890688 -25.879798 0.000000 0.000000 0.000000 -7.125000 0.000000 0.000000 -64.120970 44.507671 -1.462007 0.000000 0.000000 0.000000 -122.576098 -22.139746 -31.842225 -29.421454 -40.392333 -11.032781 5.578683 -37.134163 -26.185109 0.000000 0.000000 0.000000 7.125000 0.000000 0.000000 21.036188 5.079651 20.560496
8.922076 15.028459 -21.034526 -188.240618 -137.675307 -164.191497 0.000000 0.000000 0.000000 -27.880241 1.470302 -42.899247 8.603735 16.545825 54.709188 1.269083 1.325869 -21.807298 0.986177 6.306214 17.680205 0.000000 0.000000 0.000000 18.456411 -11.839910 -45.678115 -18.017915 -19.904810 84.195755 0.467073 -12.123551 -2.687069 -0.522090 4.614874 -12.816129 4.460183 0.435910 8.145539 1.350339 1.297230 -6.990994 -1.267890 0.287200 -12.113848 -2.728977 1.552767 -3.937944 1.849058 1.691758 27.174682 1.228044 0.548816 9.094559 0.000000 0.000000 0.000000 101.243986 -16.600703 29.015049 33.279684 -43.542851 13.614714 -52.024927 -15.710296 -23.585390 0.000000 0.000000 0.000000 -7.125000 0.000000 0.000000 -61.416111 42.006816 -8.580913 0.000000 0.000000 0.000000 -124.442225 -20.259126 -35.623842 -29.175370 -40.175982 -10.873706 5.652673 -38.015991 -27.134506 0.000000 0.000000 0.000000 7.125000 0.000000 0.000000 21.023443 4.189860 20.920995
8.558739 15.106349 -20.958733 -188.737499 -139.911634 -163.582224 0.000000 0.000000 0.000000 -26.211216 1.116949 -41.389839 8.473253 16.456389 54.249687 1.287836 1.021564 -21.845738 0.687996 5.277029 14.706403 0.000000 0.000000 0.000000 17.112230 -8.703134 -46.612423 -16.337071 -19.670767 79.232062 0.455035 -11.930484 -3.016136 -0.536989 4.681904 -13.005837 5.250211 0.267382 7.526259 1.680423 1.165853 -7.031835 -1.320006 0.180175 -11.791096 -2.634965 1.519180 -3.791976 1.518305 1.717942 27.337817 1.101538 0.538833 9.130494 0.000000 0.000000 0.000000 101.410859 -16.607663 27.000276 34.864281 -44.713713 14.718201 -54.249569 -21.251911 -22.520300 0.000000 0.000000 0.000000 -7.125000 0.000000 0.000000 -59.878448 40.252837 -13.402711 0.000000 0.000000 0.000000 -125.100574 -18.258812 -39.132910 -29.479149 -40.442564 -11.070270 7.600404 -38.325201 -27.167539 0.000000 0.000000 0.000000 7.125000 0.000000 0.000000 22.098145 4.205499 22.169797
8.217741 15.285154 -20.855248 -188.388235 -141.854018 -163.541441 0.000000 0.000000 0.000000 -25.081164 0.653255 -39.364588 8.006149 16.123418 52.584407 1.206519 0.139337 -20.822829 0.474425 4.405874 12.223021 0.000000 0.000000 0.000000 14.813287 -5.090359 -45.706008 -13.532691 -18.960200 70.766466 0.425579 -11.548091 -2.980171 -0.637227 5.083965 -14.153478 5.618824 0.224649 6.936973 1.893327 1.130026 -7.030309 -1.283753 0.151605 -11.434635 -2.951843 1.610544 -3.972261 1.081118 2.021242 27.660879 1.038289 0.606465 9.276873 0.000000 0.000000 0.000000 101.018653 -16.815146 25.801703 35.605768 -45.239522 15.242002 -55.465933 -21.134977 -18.912343 0.000000 0.000000 0.000000 -7.125000 0.000000 0.000000 -55.032253 35.441420 -24.004223 0.000000 0.000000 0.000000 -125.499704 -16.045717 -41.782433 -30.015391 -40.906485 -11.419778 9.814043 -38.953599 -25.754543 0.000000 0.000000 0.000000 7.125000 0.000000 0.000000 23.418145 5.544590 23.116495
7.888823 15.509204 -20.746098 -187.821110 -143.489616 -164.087873 0.000000 0.000000 0.000000 -24.216417 0.480177 -36.478409 7.336065 15.608120 50.133569 0.996951 -1.064064 -18.544954 0.585303 4.895425 13.611116 0.000000 0.000000 0.000000 12.154446 -0.639473 -42.499527 -10.096034 -17.456766 59.800076 0.454821 -12.795674 0.440153 -1.116418 6.712358 -18.865987 5.800613 0.329979 7.047733 2.117524 1.324171 -6.942551 -1.176420 0.244636 -11.394510 -2.447724 1.721732 -3.615098 0.091448 2.367503 27.447241 0.637093 0.731893 9.150568 0.000000 0.000000 0.000000 100.269414 -16.090996 25.162436 36.674442 -45.971285 16.005583 -58.651363 -22.036538 -15.875815 0.000000 0.000000 0.000000 -7.125000 0.000000 0.000000 -50.259470 28.455096 -36.701695 0.000000 0.000000 0.000000 -125.713516 -13.691888 -43.707446 -30.240053 -41.098236 -11.567102 10.972056 -39.452209 -26.087037 0.000000 0.000000 0.000000 7.125000 0.000000 0.000000 24.019110 5.231216 23.994874
7.556077 15.742534 -20.635837 -186.124609 -145.355684 -164.860518 0.000000 0.000000 0.000000 -24.647111 0.575533 -34.594848 6.707514 15.079809 47.757875 0.622633 0.194463 -14.959212 0.034510 0.099348 0.274362 0.000000 0.000000 0.000000 8.476304 4.487559 -38.898326 -7.005401 -15.322567 48.870443 0.181374 -14.301344 7.823369 -2.175181 9.176033 -26.381573 5.136311 0.424239 6.628743 2.078595 1.334394 -6.838707 -0.847557 0.313762 -11.024159 -2.106379 1.776856 -3.658808 -0.741746 2.636736 27.273821 0.317315 0.822895 9.113879 0.000000 0.000000 0.000000 99.731868 -14.762465 25.044585 36.917643 -46.133852 16.180645 -58.785050 -25.071169 -16.193218 0.000000 0.000000 0.000000 -7.125000 0.000000 0.000000 -50.526928 28.878724 -36.125088 0.000000 0.000000 0.000000 -125.729643 -11.520062 -45.796833 -29.838871 -40.754712 -11.304351 11.307346 -39.789635 -26.159211 0.000000 0.000000 0.000000 7.125000 0.000000 0.000000 24.192941 5.160760 24.243814
7.228713 15.993718 -20.527245 -184.880160 -148.019050 -165.167354 0.000000 0.000000 0.000000 -24.285736 0.357593 -33.308063 6.290948 14.704529 46.138650 0.322245 -2.127849 -10.155395 0.774548 5.614518 15.671233 0.000000 0.000000 0.000000 4.564691 10.984923 -34.526045 -4.729123 -13.063555 39.621249 0.493750 -19.903118 9.628723 -1.293900 6.842081 -19.383624 5.048658 0.418690 6.279619 2.161856 1.302551 -6.859018 -0.701014 0.314436 -10.840079 -1.731506 1.813383 -3.174080 -1.310884 2.784710 26.456808 0.065848 0.905447 8.750754 0.000000 0.000000 0.000000 99.019287 -13.478276 24.826259 36.772953 -46.037462 16.076441 -55.260739 -26.228095 -18.552668 0.000000 0.000000 0.000000 -7.125000 0.000000 0.000000 -54.633387 35.003345 -24.684259 0.000000 0.000000 0.000000 -125.506160 -9.217465 -47.220803 -29.250654 -40.241959 -10.922444 8.583886 -41.300157 -26.329330 0.000000 0.000000 0.000000 7.125000 0.000000 0.000000 22.697300 5.002006 22.518186
